<svg width="18" height="18" viewBox="0 0 18 18" fill="none" xmlns="http://www.w3.org/2000/svg">
<path d="M16.8749 8.38148H1.1249C0.787402 8.38148 0.478027 8.66273 0.478027 9.02836C0.478027 9.36586 0.759277 9.67524 1.1249 9.67524H16.8749C17.2124 9.67524 17.5218 9.39398 17.5218 9.02836C17.5218 8.66273 17.2124 8.38148 16.8749 8.38148Z" fill="white"/>
<path d="M16.8749 13.1627H1.1249C0.787402 13.1627 0.478027 13.444 0.478027 13.8096C0.478027 14.1752 0.759277 14.4565 1.1249 14.4565H16.8749C17.2124 14.4565 17.5218 14.1752 17.5218 13.8096C17.5218 13.444 17.2124 13.1627 16.8749 13.1627Z" fill="white"/>
<path d="M1.1249 4.83774H16.8749C17.2124 4.83774 17.5218 4.55649 17.5218 4.19087C17.5218 3.82524 17.2405 3.54399 16.8749 3.54399H1.1249C0.787402 3.54399 0.478027 3.82524 0.478027 4.19087C0.478027 4.55649 0.787402 4.83774 1.1249 4.83774Z" fill="white"/>
</svg>
