<svg width="16" height="16" viewBox="0 0 16 16" fill="none" xmlns="http://www.w3.org/2000/svg">
<path d="M6.69181 3.54411L7.12448 4.3194C7.51495 5.01906 7.3582 5.93689 6.74322 6.55187C6.74322 6.55187 5.99727 7.29783 7.34976 8.65032C8.70223 10.0028 9.44821 9.25686 9.44821 9.25686C10.0632 8.64188 10.981 8.48513 11.6807 8.8756L12.456 9.30827C13.5125 9.89788 13.6372 11.3795 12.7086 12.3081C12.1506 12.8661 11.467 13.3003 10.7114 13.329C9.43926 13.3772 7.27893 13.0552 5.11188 10.8882C2.94483 8.72115 2.62289 6.56082 2.67112 5.28873C2.69976 4.53307 3.13395 3.84949 3.69195 3.29149C4.62058 2.36285 6.1022 2.48763 6.69181 3.54411Z" fill="white"/>
</svg>
