<svg width="16" height="16" viewBox="0 0 16 16" fill="none" xmlns="http://www.w3.org/2000/svg">
<path fill-rule="evenodd" clip-rule="evenodd" d="M6.39485 2.13351C6.2325 2.27187 6.15132 2.34105 6.06463 2.39916C5.86589 2.53236 5.6427 2.62481 5.40799 2.67115C5.30559 2.69136 5.19927 2.69985 4.98664 2.71682C4.45238 2.75945 4.18525 2.78077 3.96239 2.85949C3.44692 3.04155 3.04147 3.44701 2.8594 3.96247C2.78069 4.18534 2.75937 4.45246 2.71674 4.98672C2.69977 5.19936 2.69128 5.30567 2.67107 5.40807C2.62473 5.64278 2.53228 5.86597 2.39908 6.06471C2.34097 6.1514 2.27179 6.23258 2.13343 6.39494C1.78581 6.80285 1.61199 7.00682 1.51006 7.22007C1.27432 7.7133 1.27432 8.2867 1.51006 8.77993C1.61199 8.99318 1.7858 9.19714 2.13343 9.60506C2.27178 9.7674 2.34097 9.8486 2.39908 9.93529C2.53228 10.134 2.62473 10.3572 2.67107 10.5919C2.69128 10.6943 2.69977 10.8006 2.71674 11.0133C2.75937 11.5475 2.78069 11.8147 2.8594 12.0375C3.04147 12.553 3.44692 12.9584 3.96239 13.1405C4.18525 13.2192 4.45238 13.2405 4.98664 13.2832C5.19927 13.3002 5.30559 13.3086 5.40799 13.3289C5.6427 13.3752 5.86589 13.4676 6.06463 13.6008C6.15132 13.659 6.2325 13.7281 6.39485 13.8665C6.80278 14.2141 7.00674 14.3879 7.21999 14.4899C7.71322 14.7256 8.28662 14.7256 8.77985 14.4899C8.9931 14.3879 9.19706 14.2141 9.60498 13.8665C9.76734 13.7281 9.84851 13.659 9.93521 13.6008C10.1339 13.4676 10.3571 13.3752 10.5919 13.3289C10.6942 13.3086 10.8006 13.3002 11.0132 13.2832C11.5475 13.2405 11.8146 13.2192 12.0374 13.1405C12.5529 12.9584 12.9584 12.553 13.1404 12.0375C13.2192 11.8147 13.2405 11.5475 13.2831 11.0133C13.3001 10.8006 13.3086 10.6943 13.3288 10.5919C13.3751 10.3572 13.4676 10.134 13.6008 9.93529C13.6589 9.8486 13.728 9.76742 13.8664 9.60506C14.214 9.19714 14.3878 8.99318 14.4898 8.77993C14.7255 8.2867 14.7255 7.7133 14.4898 7.22007C14.3878 7.00682 14.214 6.80286 13.8664 6.39494C13.728 6.23258 13.6589 6.1514 13.6008 6.06471C13.4676 5.86597 13.3751 5.64278 13.3288 5.40807C13.3086 5.30567 13.3001 5.19936 13.2831 4.98672C13.2405 4.45246 13.2192 4.18533 13.1404 3.96247C12.9584 3.44701 12.5529 3.04155 12.0374 2.85949C11.8146 2.78077 11.5475 2.75945 11.0132 2.71682C10.8006 2.69985 10.6942 2.69136 10.5919 2.67115C10.3571 2.62481 10.1339 2.53236 9.93521 2.39916C9.84851 2.34105 9.76734 2.27187 9.60498 2.13351C9.19706 1.78589 8.9931 1.61207 8.77985 1.51014C8.28662 1.2744 7.71322 1.2744 7.21999 1.51014C7.00674 1.61207 6.80277 1.78589 6.39485 2.13351ZM10.5539 5.44639C10.7657 5.65828 10.7657 6.00182 10.5539 6.21371L6.21327 10.5543C6.00139 10.7662 5.65785 10.7662 5.44596 10.5543C5.23407 10.3424 5.23407 9.99887 5.44596 9.78698L9.78655 5.44639C9.99843 5.23451 10.342 5.23451 10.5539 5.44639ZM10.5319 9.80892C10.5319 10.2085 10.208 10.5324 9.80849 10.5324C9.40895 10.5324 9.08506 10.2085 9.08506 9.80892C9.08506 9.40938 9.40895 9.08549 9.80849 9.08549C10.208 9.08549 10.5319 9.40938 10.5319 9.80892ZM6.19133 6.9152C6.59087 6.9152 6.91476 6.59131 6.91476 6.19177C6.91476 5.79223 6.59087 5.46834 6.19133 5.46834C5.79179 5.46834 5.4679 5.79223 5.4679 6.19177C5.4679 6.59131 5.79179 6.9152 6.19133 6.9152Z" fill="white"/>
</svg>
